<svg xmlns="http://www.w3.org/2000/svg" viewBox="0 0 90.5 72.9">
  <path d="M13.1,40.9H86.9a2,2,0,0,0,1.7-.9,2.18,2.18,0,0,0,.4-1.9c-2.3-8.1-8.6-15-17-19.4a2.18,2.18,0,0,0-.8-.5c-.1,0-.3-.1-.4-.1a46.88,46.88,0,0,0-18.1-4.5h0a1.7,1.7,0,0,0-1,0c-.5,0-1-.1-1.6-.1a48.22,48.22,0,0,0-17.2,3.1c-.3.1-.5.1-.7.3C21.6,21,13.6,28.7,11,38.1a2.23,2.23,0,0,0,1.5,2.7C12.7,40.8,12.9,40.9,13.1,40.9ZM29.6,22.8l-2.1,6.6a2.18,2.18,0,0,0,4.1,1.5v-.1L35,20.4a44.15,44.15,0,0,1,14.2-2.6L46,29.5a2.23,2.23,0,0,0,4.3,1.2L53.7,18a43.6,43.6,0,0,1,14.1,3.5L65,29.3a2.2,2.2,0,0,0,1.4,2.8,1.7,1.7,0,0,0,.7.1,2.26,2.26,0,0,0,2.1-1.5l2.5-7.3a29.24,29.24,0,0,1,12.2,13H16.2C18.6,30.8,23.4,26.1,29.6,22.8Z" transform="translate(-4.7 -13.5)"/>
  <path d="M89.1,78.8V69.9a2.22,2.22,0,0,0-2.2-2.2h-8A5.67,5.67,0,0,0,73,73v1.3a3.42,3.42,0,0,1-.9,2.2c-.7.8-1.9,1.1-3.6,1.1-3.9,0-4.4-2.7-4.5-3.4v-.8c-.2-1.9-1.9-5.4-6.7-5.4A6.16,6.16,0,0,0,51,73.4v1.2a2,2,0,0,1-2.3,1.7c-1.9,0-2.4-1-2.4-1.7V73.2a5.26,5.26,0,0,0-3.2-5.1,7.2,7.2,0,0,0-3.2-.7H13.1a2.22,2.22,0,0,0-2.2,2.2v9.1a7.7,7.7,0,0,0,7.7,7.7H81.3A7.58,7.58,0,0,0,89.1,78.8Zm-73.8,0V71.9H40c1.3,0,2,.5,2,1.5v1.4c.1,2.4,1.9,6,6.8,6a6.42,6.42,0,0,0,6.7-5.7V73.9c.1-.7.6-1.4,1.9-1.4,1.7,0,2.2.9,2.3,1.4v.5c.1,2.1,1.9,7.7,8.9,7.7a8.68,8.68,0,0,0,6.7-2.5,7.92,7.92,0,0,0,2.1-5.3v-.9c0-.3.2-1.1,1.6-1.1h5.8V79a3.37,3.37,0,0,1-3.4,3.4H18.6a3.68,3.68,0,0,1-3.3-3.6Z" transform="translate(-4.7 -13.5)"/>
  <path d="M86.9,60.3H13.1a2.2,2.2,0,1,0,0,4.4H86.9a2.2,2.2,0,0,0,0-4.4Z" transform="translate(-4.7 -13.5)"/>
  <path d="M11.8,57.2H88.1a7.1,7.1,0,1,0,0-14.2H11.8a7.1,7.1,0,0,0,0,14.2Zm0-9.8H88.1a2.7,2.7,0,1,1,0,5.4H11.8A2.78,2.78,0,0,1,9.1,50,2.89,2.89,0,0,1,11.8,47.4Z" transform="translate(-4.7 -13.5)"/>
</svg>
