<svg xmlns="http://www.w3.org/2000/svg"><symbol id="icon-burger" viewBox="0 0 90.5 72.9"><path d="M8.4 27.4h73.8a2 2 0 0 0 1.7-.9 2.18 2.18 0 0 0 .4-1.9c-2.3-8.1-8.6-15-17-19.4a2.18 2.18 0 0 0-.8-.5c-.1 0-.3-.1-.4-.1A46.88 46.88 0 0 0 48 .1a1.7 1.7 0 0 0-1 0c-.5 0-1-.1-1.6-.1a48.22 48.22 0 0 0-17.2 3.1c-.3.1-.5.1-.7.3C16.9 7.5 8.9 15.2 6.3 24.6a2.23 2.23 0 0 0 1.5 2.7c.2 0 .4.1.6.1zM24.9 9.3l-2.1 6.6a2.183 2.183 0 0 0 4.1 1.5v-.1l3.4-10.4a44.15 44.15 0 0 1 14.2-2.6L41.3 16a2.232 2.232 0 0 0 4.3 1.2L49 4.5A43.6 43.6 0 0 1 63.1 8l-2.8 7.8a2.2 2.2 0 0 0 1.4 2.8 1.7 1.7 0 0 0 .7.1 2.26 2.26 0 0 0 2.1-1.5L67 9.9a29.24 29.24 0 0 1 12.2 13H11.5c2.4-5.6 7.2-10.3 13.4-13.6zM84.4 65.3v-8.9a2.22 2.22 0 0 0-2.2-2.2h-8a5.67 5.67 0 0 0-5.9 5.3v1.3a3.42 3.42 0 0 1-.9 2.2c-.7.8-1.9 1.1-3.6 1.1-3.9 0-4.4-2.7-4.5-3.4v-.8c-.2-1.9-1.9-5.4-6.7-5.4a6.16 6.16 0 0 0-6.3 5.4v1.2a2 2 0 0 1-2.3 1.7c-1.9 0-2.4-1-2.4-1.7v-1.4a5.26 5.26 0 0 0-3.2-5.1 7.2 7.2 0 0 0-3.2-.7H8.4a2.22 2.22 0 0 0-2.2 2.2v9.1a7.7 7.7 0 0 0 7.7 7.7h62.7a7.58 7.58 0 0 0 7.8-7.6zm-73.8 0v-6.9h24.7c1.3 0 2 .5 2 1.5v1.4c.1 2.4 1.9 6 6.8 6a6.42 6.42 0 0 0 6.7-5.7v-1.2c.1-.7.6-1.4 1.9-1.4 1.7 0 2.2.9 2.3 1.4v.5c.1 2.1 1.9 7.7 8.9 7.7a8.68 8.68 0 0 0 6.7-2.5 7.92 7.92 0 0 0 2.1-5.3v-.9c0-.3.2-1.1 1.6-1.1h5.8v6.7a3.37 3.37 0 0 1-3.4 3.4H13.9a3.68 3.68 0 0 1-3.3-3.6zM82.2 46.8H8.4a2.2 2.2 0 1 0 0 4.4h73.8a2.2 2.2 0 0 0 0-4.4zM7.1 43.7h76.3a7.1 7.1 0 1 0 0-14.2H7.1a7.1 7.1 0 0 0 0 14.2zm0-9.8h76.3a2.7 2.7 0 1 1 0 5.4H7.1a2.78 2.78 0 0 1-2.7-2.8 2.89 2.89 0 0 1 2.7-2.6z"/></symbol></svg>