<svg id="Calque_1" data-name="Calque 1" xmlns="http://www.w3.org/2000/svg" viewBox="0 0 196.5835 38.38636"><title>logo</title><path d="M18.08475,44.41879V17.677q0-1.30015.04876-2.2807h-.24468c-.03251.22934-.07314.4984-.1228.809q-.07313.4659-.24468,1.54394-.172,1.08077-.51465,2.94162-.344,1.86355-.9074,4.97673-.5634,3.11226-1.37239,7.69623-.80855,4.58577-1.98546,11.055H10.682q-1.17556-6.471-2.00983-11.055-.83427-4.58307-1.39677-7.69623Q6.7106,22.55532,6.368,20.66737T5.8533,17.72576q-.172-1.05368-.24468-1.52047c-.04966-.31059-.09119-.57965-.12279-.809H5.24024q.04877.98053.04966,2.2807V44.41879H1.4165V7.30731H8.37778q.98055,6.3735,1.56923,10.2469.58777,3.87339.93178,6.127.3413,2.25632.465,3.33347.12189,1.08075.22121,1.91232h.24468q.04875-.83157.19593-1.91232.14762-1.07805.49027-3.33347.34264-2.25361.95616-6.127.61215-3.87341,1.5936-10.2469h6.91252V44.41879Z" transform="translate(-1.4165 -6.66987)" fill="#fff"/><path d="M29.21287,44.41879v-16.178L23.968,7.5529V7.30731h4.36277q.93042,4.31492,1.49518,6.91162.5634,2.60032.85775,4.09371.29525,1.49789.41713,2.1579.12189.66091.22031,1.10333h.3431a10.77992,10.77992,0,0,1,.19592-1.10333q.14763-.66091.46589-2.1579.31827-1.49248.883-4.09371.562-2.59626,1.54394-6.91162h4.26525V7.5529L33.87088,28.19206V44.41879Z" transform="translate(-1.4165 -6.66987)" fill="#fff"/><path d="M51.76435,32.01489a8.57142,8.57142,0,0,0-.12279,1.22613c-.01716.45866-.02438,1.02929-.02438,1.71549q0,2.1588.09751,3.11316a4.2577,4.2577,0,0,0,.44151,1.59451,1.84148,1.84148,0,0,0,.6862.75842,2.58271,2.58271,0,0,0,1.22612.22211,3.18235,3.18235,0,0,0,1.39678-.22211,1.99327,1.99327,0,0,0,.76023-.85774,5.00717,5.00717,0,0,0,.44061-1.76425q.09752-1.078.09841-3.5303V32.70289a9.59952,9.59952,0,0,0-.04875-1.05457c-.03341-.27809-.06591-.52187-.09842-.73495s-.08216-.44964-.14717-.71148a2.53408,2.53408,0,0,0-.51465-1.02929,7.97993,7.97993,0,0,0-1.05367-.883q-.58913-.44151-1.32363-.9065-.73541-.4659-1.47081-.95526-.73541-.49028-1.422-1.00582a10.67682,10.67682,0,0,1-1.17647-1.00582,4.96977,4.96977,0,0,1-.83337-1.10152,5.45608,5.45608,0,0,1-.539-1.59451,19.444,19.444,0,0,1-.29434-2.4992q-.09886-1.51956-.09842-3.87339a21.59818,21.59818,0,0,1,.36748-4.63273,5.65527,5.65527,0,0,1,1.2505-2.52448A4.35988,4.35988,0,0,1,51.17567,7.013a9.79619,9.79619,0,0,1,2.94161-.3431,9.12036,9.12036,0,0,1,3.4066.49027,4.33116,4.33116,0,0,1,1.78953,1.32364,5.43047,5.43047,0,0,1,.93178,2.27979,22.93993,22.93993,0,0,1,.24469,3.849q0,1.56832-.07314,2.57324a11.174,11.174,0,0,1-.2203,1.64145H56.519a7.56944,7.56944,0,0,0,.12279-1.20084q.02437-.70966.02438-1.83828A18.87331,18.87331,0,0,0,56.519,13.019a3.35106,3.35106,0,0,0-.539-1.44643,1.37843,1.37843,0,0,0-.68619-.51464,4.23816,4.23816,0,0,0-1.17647-.1228,3.30962,3.30962,0,0,0-1.15209.14717,1.48278,1.48278,0,0,0-.66181.58869,3.53345,3.53345,0,0,0-.4659,1.42115,23.06423,23.06423,0,0,0-.12279,2.8441v1.83828c0,.47312.00813.86678.02438,1.17557a4.65547,4.65547,0,0,0,.09841.78551q.07314.31962.17155.66092a3.88592,3.88592,0,0,0,.49027.95706,5.81609,5.81609,0,0,0,1.0293.9065,15.97358,15.97358,0,0,0,2.13262,1.37239,21.1957,21.1957,0,0,1,2.37821,1.52047,11.30945,11.30945,0,0,1,1.29836,1.05277,4.65064,4.65064,0,0,1,.809,1.20084q.19638.44151.3431.883a5.61812,5.61812,0,0,1,.22121,1.17737c.04875.48936.08126,1.11958.09751,1.887s.02528,1.757.02528,2.96509q0,1.91232-.09842,3.26124a22.60013,22.60013,0,0,1-.27,2.30417,9.7569,9.7569,0,0,1-.41623,1.618,12.78012,12.78012,0,0,1-.539,1.2496,3.82371,3.82371,0,0,1-1.86356,1.71549,8.90908,8.90908,0,0,1-3.62781.58868,9.14337,9.14337,0,0,1-3.16192-.44061,3.517,3.517,0,0,1-1.83829-1.71729,11.78352,11.78352,0,0,1-.539-1.12681,6.81321,6.81321,0,0,1-.39276-1.37239,16.28118,16.28118,0,0,1-.22031-1.86357q-.07313-1.078-.07313-2.64727,0-1.27308.07313-2.23014.07314-.95616.17155-1.64326Z" transform="translate(-1.4165 -6.66987)" fill="#fff"/><path d="M76.86378,44.41879q-.54038-5.83448-.93178-10.0004-.39276-4.16594-.66182-7.0606-.2695-2.89015-.41623-4.70587-.14762-1.81209-.24558-2.94161-.09888-1.1268-.14718-1.76425-.04875-.63654-.04875-1.17737h-.3431c0,.36116-.01715.753-.04876,1.17737q-.0501.63654-.14717,1.76425-.09887,1.12951-.27,2.94161-.172,1.81482-.44151,4.70587-.26952,2.89285-.6862,7.0606-.41714,4.16592-.95616,10.0004H65.19574L62.25412,7.30731h4.36367q.44151,6.71751.73495,11.4965.2939,4.7808.51465,8.06461.22075,3.28562.3431,5.29455.12189,2.00982.19683,3.21067.07313,1.20266.12189,1.83829.04875.63924.04966,1.12861h.39185q0-.49028.04876-1.12861.04875-.63654.17155-1.83829.12189-1.19994.34309-3.21067.22077-2.00984.53993-5.29455.31827-3.28561.83337-8.04114.51465-4.75371,1.20084-11.52h4.314q.68666,6.71751,1.20085,11.4965.516,4.7808.85864,8.06461.3413,3.28562.56341,5.29455.22076,2.00982.34309,3.21067.12189,1.20266.14718,1.83829.02437.63924.07313,1.12861h.39276c0-.32685.00722-.70245.02437-1.12861q.02439-.63654.09842-1.83829.07314-1.19994.19593-3.21067.12189-2.00984.31872-5.29455.195-3.28561.51464-8.04114.31827-4.75371.75933-11.52h4.16774L83.18763,44.41879Z" transform="translate(-1.4165 -6.66987)" fill="#fff"/><path d="M88.58059,44.41879V7.30731H100.0518v4.41242H92.89459V23.38688h7.0597v4.21649h-7.0597V39.81044h7.10846v4.60835Z" transform="translate(-1.4165 -6.66987)" fill="#fff"/><path d="M102.99342,44.41879V7.30731h11.47121v4.41242h-7.15721V23.38688h7.0597v4.21649h-7.0597V39.81044h7.10846v4.60835Z" transform="translate(-1.4165 -6.66987)" fill="#fff"/><path d="M120.9835,44.41879V11.71973h-4.60745V7.30731h13.5298v4.41242h-4.55778V44.41879Z" transform="translate(-1.4165 -6.66987)" fill="#fff"/><path d="M139.36814,44.41879V7.30731h4.314V39.81044h6.61818v4.60835Z" transform="translate(-1.4165 -6.66987)" fill="#fff"/><path d="M152.65145,42.01711a12.86264,12.86264,0,0,1-.58687-1.83829,18.76727,18.76727,0,0,1-.39366-2.72131q-.14628-1.71459-.22031-4.48555-.07313-2.76827-.07223-7.13283,0-4.36368.07223-7.10936.07314-2.74387.22031-4.46027a18.05218,18.05218,0,0,1,.39366-2.69694,15.55228,15.55228,0,0,1,.58687-1.86266,4.35524,4.35524,0,0,1,1.96108-2.37821,11.09706,11.09706,0,0,1,7.55,0,4.34039,4.34039,0,0,1,1.96107,2.37821,15.5519,15.5519,0,0,1,.58869,1.86266,18.09157,18.09157,0,0,1,.39185,2.69694q.14626,1.71457.22031,4.46027.07312,2.74659.074,7.10936,0,4.36366-.074,7.13283-.07314,2.771-.22031,4.48555a18.80752,18.80752,0,0,1-.39185,2.72131,12.85823,12.85823,0,0,1-.58869,1.83829,4.33606,4.33606,0,0,1-1.96107,2.3764,11.08289,11.08289,0,0,1-7.55,0A4.35088,4.35088,0,0,1,152.65145,42.01711Zm7.84431-3.13845q.14626-.58778.24559-1.27488.09751-.68529.17155-2.03331.07312-1.34892.12279-3.65309.04875-2.30237.04876-6.17757,0-3.87069-.02528-6.201-.02439-2.32674-.09752-3.67657c-.04875-.89928-.10654-1.56741-.17155-2.00983a12.5183,12.5183,0,0,0-.24558-1.2505,2.3456,2.3456,0,0,0-.70967-1.2496,2.32484,2.32484,0,0,0-1.44643-.36838,2.21406,2.21406,0,0,0-1.423.36838,2.42334,2.42334,0,0,0-.68619,1.20084q-.14628.58779-.26906,1.27579a18.17882,18.17882,0,0,0-.195,2.0333q-.07584,1.34892-.09932,3.67657-.02437,2.32945-.02347,6.201,0,3.87339.02347,6.17757.02439,2.30508.09932,3.65309a18.17905,18.17905,0,0,0,.195,2.03331q.12189.688.26906,1.27488a2.29748,2.29748,0,0,0,.68619,1.22613,3.11864,3.11864,0,0,0,2.84411,0A2.28584,2.28584,0,0,0,160.49576,38.87866Z" transform="translate(-1.4165 -6.66987)" fill="#fff"/><path d="M173.929,28.044V23.82929h7.698q.046.93178.07223,2.40169.02438,1.47081.02528,3.67657,0,3.03912-.074,5.049-.07314,2.01253-.24559,3.33347a17.214,17.214,0,0,1-.39185,2.1579,13.318,13.318,0,0,1-.51465,1.56923,4.33606,4.33606,0,0,1-1.96107,2.3764,11.08289,11.08289,0,0,1-7.55,0,4.35083,4.35083,0,0,1-1.96107-2.3764,12.86136,12.86136,0,0,1-.58688-1.83829,18.94781,18.94781,0,0,1-.39366-2.77006q-.14628-1.76606-.22031-4.5596-.07313-2.79534-.07223-7.30438,0-4.3149.07223-7.01.07314-2.69784.22031-4.388a16.51411,16.51411,0,0,1,.39366-2.62289,14.40433,14.40433,0,0,1,.53812-1.66674,4.52662,4.52662,0,0,1,2.03511-2.52538,8.47571,8.47571,0,0,1,3.75061-.66182,7.53175,7.53175,0,0,1,4.01966.83337,4.5389,4.5389,0,0,1,1.813,2.35383,12.46089,12.46089,0,0,1,.78551,3.43008q.14626,1.76605.14627,3.43279v1.12861a6.34023,6.34023,0,0,1-.04876.78371h-4.11718a5.72451,5.72451,0,0,0,.04876-.76023V16.71994c0-.61938-.02528-1.2496-.074-1.887a15.52411,15.52411,0,0,0-.31781-2.08387,2.66438,2.66438,0,0,0-.66273-1.29926,2.21287,2.21287,0,0,0-1.59269-.46589,2.32957,2.32957,0,0,0-1.47171.39276,2.51944,2.51944,0,0,0-.735,1.42115,8.33559,8.33559,0,0,0-.24558,1.15208q-.09752.66363-.17155,2.03512-.07314,1.3733-.12279,3.62781-.04877,2.25632-.04876,5.88323,0,3.82193.04876,6.17576t.14807,3.75061q.09751,1.39767.22031,2.10915.12189.70966.26906,1.29835a2.60844,2.60844,0,0,0,.66272,1.30017,2.40054,2.40054,0,0,0,1.54394.36657,2.45514,2.45514,0,0,0,1.47171-.36657,2.28012,2.28012,0,0,0,.73495-1.25141q.14626-.539.26906-1.20084a15.738,15.738,0,0,0,.19683-1.56922q.07314-.90471.1228-2.18139c.03069-.84871.04875-1.86176.04875-3.03912V29.12384a10.58674,10.58674,0,0,0-.04875-1.07986Z" transform="translate(-1.4165 -6.66987)" fill="#fff"/><path d="M185.253,42.01711a12.86136,12.86136,0,0,1-.58688-1.83829,18.77006,18.77006,0,0,1-.39366-2.72131q-.14626-1.71459-.2203-4.48555-.07314-2.76827-.07223-7.13283,0-4.36368.07223-7.10936.07313-2.74387.2203-4.46027a18.05481,18.05481,0,0,1,.39366-2.69694A15.55048,15.55048,0,0,1,185.253,9.7099a4.3552,4.3552,0,0,1,1.96108-2.37821,11.097,11.097,0,0,1,7.55,0,4.34036,4.34036,0,0,1,1.96108,2.37821,15.55189,15.55189,0,0,1,.58868,1.86266,18.09136,18.09136,0,0,1,.39186,2.69694q.14626,1.71457.2203,4.46027.07314,2.74659.074,7.10936,0,4.36366-.074,7.13283-.07313,2.771-.2203,4.48555a18.80731,18.80731,0,0,1-.39186,2.72131,12.85825,12.85825,0,0,1-.58868,1.83829,4.336,4.336,0,0,1-1.96108,2.3764,11.08286,11.08286,0,0,1-7.55,0A4.35084,4.35084,0,0,1,185.253,42.01711Zm7.84431-3.13845q.14626-.58778.24558-1.27488.09751-.68529.17155-2.03331.07314-1.34892.1228-3.65309.04875-2.30237.04875-6.17757,0-3.87069-.02528-6.201-.02437-2.32674-.09751-3.67657c-.04876-.89928-.10654-1.56741-.17155-2.00983a12.52108,12.52108,0,0,0-.24559-1.2505,2.34553,2.34553,0,0,0-.70967-1.2496,2.32482,2.32482,0,0,0-1.44643-.36838,2.214,2.214,0,0,0-1.42295.36838,2.42335,2.42335,0,0,0-.6862,1.20084q-.14626.58779-.26906,1.27579a18.1769,18.1769,0,0,0-.195,2.0333q-.07584,1.34892-.09932,3.67657-.02437,2.32945-.02348,6.201,0,3.87339.02348,6.17757.02438,2.30508.09932,3.65309a18.17714,18.17714,0,0,0,.195,2.03331q.12189.688.26906,1.27488a2.29748,2.29748,0,0,0,.6862,1.22613,3.11862,3.11862,0,0,0,2.8441,0A2.28591,2.28591,0,0,0,193.09731,38.87866Z" transform="translate(-1.4165 -6.66987)" fill="#fff"/></svg>